    <svg width="60" height="42" viewBox="0 0 60 42" fill="none" xmlns="http://www.w3.org/2000/svg">
      <rect x="1" y="1" width="58.3735" height="39.8322" fill="#1F72CD"></rect>
      <rect x="1" y="1" width="58.3735" height="39.8322" stroke="#E5E5E5" stroke-width="0.5"></rect>
      <rect x="1" y="1" width="58.3735" height="39.8322" stroke="#DDDDE4" stroke-width="0.5"></rect>
      <path fill-rule="evenodd" clip-rule="evenodd" d="M11.5154 14.9424L6.07324 27.2359H12.5883L13.396 25.2758H15.2422L16.0498 27.2359H23.2211V25.7399L23.8601 27.2359H27.5697L28.2087 25.7082V27.2359H43.123L44.9365 25.3267L46.6345 27.2359L54.2948 27.2517L48.8354 21.1234L54.2948 14.9424H46.7533L44.988 16.8163L43.3434 14.9424H27.1186L25.7254 18.1154L24.2995 14.9424H17.798V16.3875L17.0747 14.9424H11.5154ZM33.7798 16.6888H42.3443L44.9638 19.5771L47.6677 16.6888H50.2872L46.3072 21.1224L50.2872 25.505H47.5489L44.9294 22.5832L42.2117 25.505H33.7798V16.6888ZM35.9045 20.1249V18.5146V18.513H41.2485L43.5803 21.0884L41.1452 23.6778H35.9045V21.9197H40.5768V20.1249H35.9045ZM12.7655 16.6888H15.9413L19.5511 25.0251V16.6888H23.03L25.8181 22.6659L28.3877 16.6888H31.8493V25.5102H29.743L29.7258 18.5978L26.6551 25.5102H24.7709L21.683 18.5978V25.5102H17.35L16.5285 23.5325H12.0904L11.2707 25.5084H8.94906L12.7655 16.6888ZM12.855 21.7034L14.3172 18.1804L15.7777 21.7034H12.855Z" fill="white"></path>
    </svg>
