    <svg width="60" height="42" viewBox="0 0 60 42" fill="none" xmlns="http://www.w3.org/2000/svg">
      <rect x="0.749023" y="1" width="58.3735" height="39.8322" fill="white" stroke="#DDDDE4" stroke-width="0.7"></rect>
      <path d="M44.6787 29.3589C44.5451 29.3589 43.9486 29.3502 43.8061 29.324V27.5573C43.9308 27.5834 44.2602 27.5921 44.4116 27.5921C45.3465 27.5921 45.8719 27.244 46.1568 26.3649L46.2725 25.9472L42.791 16.3823H45.213L47.4924 23.8149H47.6438L49.9144 16.3823H52.2473L48.7301 26.2083C47.902 28.5756 46.8602 29.3589 44.6787 29.3589Z" fill="#020202"></path>
      <path d="M37.8543 24.3266C39.1899 24.3266 40.1872 23.4824 40.1872 22.3771V21.6199L37.9878 21.7592C36.7502 21.8375 36.1714 22.2727 36.1714 23.0473C36.1714 23.848 36.8748 24.3266 37.8543 24.3266ZM37.2043 26.0238C35.3255 26.0238 33.981 24.9098 33.981 23.1691C33.981 21.4459 35.3077 20.4537 37.6762 20.3144L40.1872 20.1665V19.3658C40.1872 18.4345 39.5461 17.9124 38.3529 17.9124C37.3378 17.9124 36.6433 18.2605 36.4385 18.9045H34.3549C34.533 17.2248 36.1447 16.1543 38.4598 16.1543C40.9618 16.1543 42.3687 17.3466 42.3687 19.3658V25.8671H40.2406V24.5616H40.0892C39.5461 25.4842 38.4776 26.0238 37.2043 26.0238Z" fill="#020202"></path>
      <path d="M24.1948 13.3267H29.3771C31.9415 13.3267 33.6956 15.0412 33.6956 17.5738C33.6956 20.063 31.8791 21.7688 29.2791 21.7688H26.4921V25.8854H24.1948V13.3267ZM26.4921 15.2066V19.9063H28.7627C30.401 19.9063 31.3627 19.0708 31.3627 17.5738C31.3627 16.0334 30.4277 15.2066 28.7716 15.2066H26.4921Z" fill="#020202"></path>
      <path d="M17.7049 15.6466C18.1055 15.6466 19.5391 15.6814 20.4741 17.013C20.3939 17.0739 18.9693 17.8572 18.9693 19.6153C18.9693 21.6518 20.7857 22.3742 20.8391 22.3916C20.8302 22.4351 20.5453 23.3751 19.8864 24.3411C19.2898 25.1766 18.6576 26.0209 17.7049 26.0209C16.7521 26.0209 16.5028 25.4813 15.4165 25.4813C14.3391 25.4813 13.9562 26.0383 13.0925 26.0383C12.2199 26.0383 11.6055 25.255 10.9199 24.3063C10.1096 23.1662 9.45068 21.4168 9.45068 19.7545C9.45068 17.1 11.2226 15.6814 12.9678 15.6814C13.885 15.6814 14.6596 16.2732 15.2384 16.2732C15.7905 16.2732 16.6453 15.6466 17.7049 15.6466ZM17.2151 14.5239C16.7432 15.0809 15.9418 15.4986 15.3096 15.4986C15.2384 15.4986 15.1672 15.4899 15.1226 15.4812C15.1137 15.4464 15.0959 15.3333 15.0959 15.2288C15.0959 14.5239 15.4699 13.8189 15.8617 13.375C16.3692 12.7919 17.224 12.3655 17.9186 12.3394C17.9364 12.4177 17.9453 12.5134 17.9453 12.6092C17.9453 13.3141 17.6425 14.0104 17.2151 14.5239Z" fill="#020202"></path>
    </svg>
