    <svg width="60" height="42" viewBox="0 0 60 42" fill="none" xmlns="http://www.w3.org/2000/svg">
                        <rect x="0.873535" y="1" width="58.3735" height="39.8322" fill="white" stroke="#DDDDE4" stroke-width="0.7"></rect>
                        <path fill-rule="evenodd" clip-rule="evenodd" d="M28.3779 25.8982V20.855H31.0409C32.1322 20.855 33.0532 20.4976 33.804 19.7927L33.9842 19.614C35.3558 18.1547 35.2657 15.8812 33.804 14.5311C33.0732 13.8163 32.0721 13.4291 31.0409 13.449H26.7661V25.8982H28.3779ZM28.3757 19.3257V14.9774H31.0792C31.6599 14.9774 32.2106 15.1958 32.6212 15.5929C33.4923 16.4268 33.5123 17.8167 32.6712 18.6804C32.2607 19.1073 31.68 19.3455 31.0792 19.3257H28.3757ZM41.4965 18.0466C40.8057 17.4212 39.8647 17.1035 38.6733 17.1035C37.1416 17.1035 35.9903 17.6594 35.2294 18.7614L36.651 19.645C37.1716 18.8905 37.8824 18.5132 38.7834 18.5132C39.3541 18.5132 39.9047 18.7217 40.3352 19.0989C40.7557 19.4563 40.9959 19.9726 40.9959 20.5186V20.8859C40.3752 20.5484 39.5944 20.3697 38.6333 20.3697C37.512 20.3697 36.611 20.6278 35.9402 21.154C35.2695 21.6801 34.9291 22.3751 34.9291 23.2586C34.9091 24.0628 35.2595 24.8272 35.8802 25.3434C36.5109 25.8994 37.3118 26.1773 38.2528 26.1773C39.3641 26.1773 40.2451 25.6909 40.9158 24.718H40.9859V25.8994H42.5277V20.6476C42.5277 19.5457 42.1873 18.672 41.4965 18.0466ZM37.133 24.3295C36.8025 24.0913 36.6023 23.7041 36.6023 23.2871C36.6023 22.8205 36.8226 22.4334 37.2531 22.1256C37.6937 21.8178 38.2444 21.659 38.8952 21.659C39.7964 21.6491 40.4973 21.8476 40.9979 22.2447C40.9979 22.9198 40.7276 23.5055 40.1969 24.0019C39.7163 24.4785 39.0654 24.7465 38.3846 24.7465C37.934 24.7564 37.4934 24.6075 37.133 24.3295ZM46.0053 29.6426L51.3914 17.3819H49.6394L47.1466 23.4974H47.1166L44.5637 17.3819H42.8117L46.3457 25.3538L44.3434 29.6426H46.0053Z" fill="#3C4043"></path>
                        <path d="M22.8114 19.7649C22.8114 19.2784 22.7713 18.792 22.6912 18.3154H15.8936V21.0654H19.7879C19.6278 21.9489 19.1072 22.7432 18.3463 23.2395V25.0265H20.6689C22.0305 23.7856 22.8114 21.9489 22.8114 19.7649Z" fill="#4285F4"></path>
                        <path d="M15.8923 26.7545C17.8345 26.7545 19.4764 26.1191 20.6677 25.027L18.3451 23.2401C17.6944 23.6769 16.8634 23.9251 15.8923 23.9251C14.0102 23.9251 12.4184 22.6643 11.8478 20.9766H9.45508V22.8231C10.6765 25.2355 13.1693 26.7545 15.8923 26.7545Z" fill="#34A853"></path>
                        <path d="M11.8492 20.9765C11.5488 20.093 11.5488 19.13 11.8492 18.2365V16.3999H9.45611C8.42479 18.4152 8.42479 20.7978 9.45611 22.8132L11.8492 20.9765Z" fill="#FBBC04"></path>
                        <path d="M15.8923 15.2888C16.9235 15.2689 17.9146 15.6561 18.6554 16.361L20.7178 14.3159C19.4063 13.1047 17.6844 12.4396 15.8923 12.4594C13.1693 12.4594 10.6765 13.9883 9.45508 16.4007L11.8478 18.2472C12.4184 16.5496 14.0102 15.2888 15.8923 15.2888Z" fill="#EA4335"></path>
                    </svg>
