    <svg width="60" height="42" viewBox="0 0 60 42" fill="none" xmlns="http://www.w3.org/2000/svg">
                        <rect x="0.375" y="1" width="58.3735" height="39.8322" fill="white" stroke="#DDDDE4" stroke-width="0.7"></rect>
                        <path d="M33.9248 20.8468C33.9248 27.6169 28.3743 33.1052 21.5274 33.1052C14.6804 33.1052 9.12988 27.6169 9.12988 20.8468C9.12988 14.0766 14.6804 8.58838 21.5274 8.58838C28.3743 8.58838 33.9248 14.0766 33.9248 20.8468Z" fill="#ED0006"></path>
                        <path d="M50.0093 20.8468C50.0093 27.6169 44.4588 33.1052 37.6118 33.1052C30.7649 33.1052 25.2144 27.6169 25.2144 20.8468C25.2144 14.0766 30.7649 8.58838 37.6118 8.58838C44.4588 8.58838 50.0093 14.0766 50.0093 20.8468Z" fill="#0099DF"></path>
                        <path fill-rule="evenodd" clip-rule="evenodd" d="M29.5692 30.1735C32.2342 27.925 33.924 24.5798 33.924 20.8443C33.924 17.1088 32.2342 13.7635 29.5692 11.5151C26.9042 13.7635 25.2144 17.1088 25.2144 20.8443C25.2144 24.5798 26.9042 27.925 29.5692 30.1735Z" fill="#6C6BBD"></path>
                    </svg>
