    <svg width="60" height="42" viewBox="0 0 60 42" fill="none" xmlns="http://www.w3.org/2000/svg">
      <rect x="0.498535" y="1" width="58.3735" height="39.8322" fill="white" stroke="#DDDDE4" stroke-width="0.7"></rect>
      <path fill-rule="evenodd" clip-rule="evenodd" d="M30.2219 30.0205C27.9954 31.8442 25.1084 32.945 21.954 32.945C14.9094 32.945 9.19873 27.4552 9.19873 20.6832C9.19873 13.9112 14.9094 8.42139 21.954 8.42139C25.1084 8.42139 27.9954 9.52215 30.2219 11.3459C32.4485 9.52215 35.3355 8.42139 38.4899 8.42139C45.5344 8.42139 51.2452 13.9112 51.2452 20.6832C51.2452 27.4552 45.5344 32.945 38.4899 32.945C35.3355 32.945 32.4485 31.8442 30.2219 30.0205Z" fill="#ED0006"></path>
      <path fill-rule="evenodd" clip-rule="evenodd" d="M30.2334 30.0117C32.973 27.7626 34.7099 24.4179 34.7099 20.6832C34.7099 16.9485 32.973 13.6037 30.2334 11.3547C32.4614 9.52569 35.3526 8.42139 38.5121 8.42139C45.5566 8.42139 51.2673 13.9112 51.2673 20.6832C51.2673 27.4552 45.5566 32.945 38.5121 32.945C35.3526 32.945 32.4614 31.8407 30.2334 30.0117Z" fill="#F9A000"></path>
      <path fill-rule="evenodd" clip-rule="evenodd" d="M30.2265 30.0212C32.9723 27.7722 34.7138 24.4236 34.7138 20.684C34.7138 16.9444 32.9723 13.5958 30.2265 11.3467C27.4807 13.5958 25.7393 16.9444 25.7393 20.684C25.7393 24.4236 27.4807 27.7722 30.2265 30.0212Z" fill="#FF5E00"></path>
    </svg>
