    <svg width="60" height="42" viewBox="0 0 60 42" fill="none" xmlns="http://www.w3.org/2000/svg">
                            <rect x="1.12354" y="1" width="58.3735" height="39.8322" fill="white" stroke="#DDDDE4" stroke-width="0.7"></rect>
                            <path fill-rule="evenodd" clip-rule="evenodd" d="M19.177 25.4414H16.8336C16.6732 25.4414 16.5368 25.5564 16.5118 25.7126L15.564 31.6424C15.5451 31.7594 15.637 31.8649 15.7573 31.8649H16.876C17.0364 31.8649 17.1728 31.7499 17.1978 31.5934L17.4534 29.9941C17.4781 29.8374 17.6148 29.7226 17.7749 29.7226H18.5167C20.0604 29.7226 20.9513 28.9854 21.1841 27.5247C21.2889 26.8857 21.1885 26.3835 20.8852 26.0318C20.5522 25.6458 19.9613 25.4414 19.177 25.4414ZM19.4474 27.6072C19.3192 28.437 18.6767 28.437 18.0555 28.437H17.7019L17.9499 26.8872C17.9647 26.7937 18.0469 26.7247 18.1429 26.7247H18.3049C18.7281 26.7247 19.1274 26.7247 19.3337 26.9627C19.4566 27.1047 19.4943 27.3157 19.4474 27.6072ZM26.1822 27.5806H25.0599C24.9643 27.5806 24.8817 27.6496 24.867 27.7433L24.8173 28.053L24.7388 27.9408C24.4959 27.5928 23.9542 27.4765 23.4135 27.4765C22.1733 27.4765 21.1141 28.4033 20.9078 29.7035C20.8006 30.3519 20.953 30.972 21.3258 31.4045C21.6679 31.8021 22.1572 31.9678 22.7394 31.9678C23.7385 31.9678 24.2928 31.3338 24.2928 31.3338L24.2427 31.6416C24.2238 31.7593 24.3156 31.8647 24.4352 31.8647H25.4461C25.6069 31.8647 25.7424 31.7497 25.7678 31.5932L26.3744 27.8031C26.3935 27.6865 26.3021 27.5806 26.1822 27.5806ZM24.6178 29.7359C24.5095 30.3685 24.0007 30.7932 23.3518 30.7932C23.0259 30.7932 22.7654 30.6901 22.5982 30.4946C22.4324 30.3006 22.3693 30.0243 22.4221 29.7166C22.5232 29.0893 23.0407 28.6509 23.6797 28.6509C23.9983 28.6509 24.2574 28.7552 24.428 28.9524C24.599 29.1516 24.6668 29.4295 24.6178 29.7359ZM31.0312 27.5804H32.159C32.3169 27.5804 32.4091 27.7552 32.3193 27.883L28.5685 33.2254C28.5078 33.312 28.4078 33.3634 28.3009 33.3634H27.1745C27.016 33.3634 26.9233 33.1872 27.0152 33.0591L28.1831 31.4324L26.9409 27.8353C26.898 27.7103 26.9915 27.5804 27.1263 27.5804H28.2344C28.3784 27.5804 28.5054 27.6737 28.547 27.8097L29.2062 29.9822L30.7616 27.7214C30.8225 27.6332 30.9237 27.5804 31.0312 27.5804Z" fill="#253B80"></path>
                            <path fill-rule="evenodd" clip-rule="evenodd" d="M43.2717 31.6427L44.2334 25.6045C44.2482 25.5107 44.3305 25.4417 44.4261 25.4414H45.5089C45.6284 25.4414 45.7202 25.5472 45.7014 25.6642L44.7529 31.5937C44.7282 31.7502 44.5918 31.8652 44.4312 31.8652H43.4642C43.3446 31.8652 43.2528 31.7597 43.2717 31.6427ZM35.9061 25.4417H33.5622C33.4022 25.4417 33.2658 25.5567 33.2408 25.7129L32.293 31.6427C32.2741 31.7597 32.3659 31.8652 32.4857 31.8652H33.6883C33.8001 31.8652 33.8957 31.7848 33.9131 31.6752L34.1821 29.9944C34.2068 29.8377 34.3435 29.7229 34.5035 29.7229H35.245C36.789 29.7229 37.6797 28.9857 37.9127 27.525C38.0178 26.886 37.9168 26.3839 37.6136 26.0321C37.2808 25.6461 36.6904 25.4417 35.9061 25.4417ZM36.1765 27.6075C36.0487 28.4373 35.4061 28.4373 34.7845 28.4373H34.4312L34.6797 26.8876C34.6944 26.794 34.7759 26.725 34.8722 26.725H35.0343C35.4572 26.725 35.8568 26.725 36.0629 26.963C36.186 27.1051 36.2234 27.316 36.1765 27.6075ZM42.9106 27.5809H41.7892C41.6928 27.5809 41.611 27.6499 41.5965 27.7436L41.5469 28.0533L41.4681 27.9411C41.2251 27.5931 40.6838 27.4768 40.143 27.4768C38.9028 27.4768 37.844 28.4036 37.6377 29.7038C37.5308 30.3522 37.6826 30.9723 38.0554 31.4048C38.3981 31.8024 38.8868 31.9681 39.4689 31.9681C40.4681 31.9681 41.0222 31.3341 41.0222 31.3341L40.9722 31.6419C40.9533 31.7596 41.0452 31.865 41.1655 31.865H42.176C42.336 31.865 42.4723 31.75 42.4974 31.5935L43.1042 27.8034C43.1228 27.6868 43.031 27.5809 42.9106 27.5809ZM41.3465 29.7362C41.2388 30.3688 40.7293 30.7935 40.0802 30.7935C39.755 30.7935 39.494 30.6904 39.3267 30.4949C39.1608 30.3009 39.0985 30.0246 39.1507 29.7169C39.2523 29.0896 39.7691 28.6512 40.4082 28.6512C40.7269 28.6512 40.9859 28.7556 41.1566 28.9527C41.3282 29.1519 41.3961 29.4298 41.3465 29.7362Z" fill="#179BD7"></path>
                            <path d="M27.8434 23.3139L28.1315 21.5082L27.4897 21.4935H24.4253L26.5549 8.16863C26.5614 8.1284 26.583 8.09089 26.6144 8.06426C26.6458 8.03763 26.6861 8.02295 26.7279 8.02295H31.8951C33.6105 8.02295 34.7943 8.37519 35.4124 9.07043C35.7021 9.39658 35.8867 9.7374 35.976 10.1125C36.0695 10.506 36.0713 10.9762 35.9798 11.5497L35.9731 11.5916V11.959L36.263 12.121C36.507 12.2488 36.7008 12.395 36.8496 12.5624C37.0976 12.8413 37.2579 13.1957 37.3256 13.6159C37.3955 14.048 37.3724 14.5622 37.2579 15.1444C37.1256 15.8141 36.9119 16.3974 36.6233 16.8746C36.3577 17.3144 36.0194 17.6791 35.6179 17.9618C35.2345 18.2303 34.7789 18.4342 34.2638 18.5647C33.7647 18.6929 33.1957 18.7577 32.5715 18.7577H32.1694C31.8819 18.7577 31.6025 18.8598 31.3834 19.0431C31.1636 19.23 31.018 19.4854 30.9734 19.7649L30.9432 19.9275L30.4341 23.11L30.411 23.2269C30.405 23.264 30.3945 23.2824 30.3791 23.295C30.3653 23.3062 30.3455 23.3139 30.3261 23.3139H27.8434Z" fill="#253B80"></path>
                            <path d="M36.5346 11.6445C36.5192 11.7418 36.5016 11.8413 36.4818 11.9435C35.8003 15.3958 33.4691 16.5884 30.4915 16.5884H28.9755C28.6115 16.5884 28.3046 16.8493 28.2479 17.2037L27.4716 22.0612L27.2519 23.4381C27.2149 23.6707 27.3968 23.8806 27.6347 23.8806H30.3236C30.642 23.8806 30.9124 23.6523 30.9625 23.3425L30.989 23.2076L31.4953 20.0374L31.5278 19.8635C31.5773 19.5526 31.8483 19.3243 32.1667 19.3243H32.5688C35.1739 19.3243 37.2133 18.2806 37.8094 15.2604C38.0583 13.9988 37.9294 12.9453 37.2705 12.2044C37.0712 11.981 36.8238 11.7956 36.5346 11.6445Z" fill="#179BD7"></path>
                            <path d="M35.8298 11.3624C35.7258 11.3325 35.6183 11.3054 35.5081 11.2809C35.3974 11.257 35.2839 11.2358 35.1671 11.2173C34.7583 11.1521 34.3105 11.1211 33.8307 11.1211H29.7807C29.681 11.1211 29.5863 11.1434 29.5015 11.1836C29.3147 11.2722 29.1759 11.4467 29.1423 11.6603L28.2806 17.0451L28.2559 17.2021C28.3126 16.8477 28.6195 16.5868 28.9836 16.5868H30.4995C33.4771 16.5868 35.8084 15.3937 36.4898 11.9419C36.5101 11.8397 36.5272 11.7402 36.5426 11.6429C36.3702 11.5527 36.1834 11.4755 35.9824 11.4097C35.9329 11.3934 35.8817 11.3777 35.8298 11.3624Z" fill="#222D65"></path>
                            <path d="M29.1525 11.6553C29.1861 11.4416 29.325 11.2671 29.5116 11.1791C29.5971 11.1388 29.6913 11.1166 29.7909 11.1166H33.841C34.3209 11.1166 34.7687 11.1475 35.1773 11.2128C35.2942 11.2313 35.4077 11.2525 35.5184 11.2764C35.6286 11.3008 35.736 11.328 35.8402 11.3579C35.8919 11.3731 35.9431 11.3889 35.9932 11.4047C36.1943 11.4704 36.3811 11.5482 36.5534 11.6379C36.7562 10.3621 36.5518 9.49342 35.8528 8.70685C35.0822 7.84094 33.6912 7.47021 31.9113 7.47021H26.744C26.3804 7.47021 26.0704 7.73112 26.0141 8.08609L23.862 21.5479C23.8195 21.8142 24.0277 22.0546 24.2998 22.0546H27.49L28.2909 17.04L29.1525 11.6553Z" fill="#253B80"></path>
                        </svg>
