   <svg width="60" height="42" viewBox="0 0 60 42" fill="none" xmlns="http://www.w3.org/2000/svg">
                        <rect x="0.733398" y="1" width="58.3735" height="39.8322" fill="white" stroke="#DDDDE4" stroke-width="0.7"></rect>
                        <path d="M33.3461 17.5338C33.3461 19.935 31.6625 21.6492 29.3099 21.6492H27.0935C27.069 21.6492 27.0448 21.6541 27.0222 21.6634C26.9996 21.6728 26.9791 21.6866 26.9618 21.7039C26.9446 21.7213 26.9309 21.7419 26.9216 21.7645C26.9123 21.7872 26.9076 21.8114 26.9077 21.8359V24.9919C26.9077 25.0413 26.8882 25.0886 26.8534 25.1236C26.8186 25.1586 26.7713 25.1783 26.722 25.1786H25.171C25.1342 25.1784 25.0981 25.1673 25.0675 25.1468C25.0369 25.1263 25.013 25.0972 24.9988 25.0631C24.9894 25.0409 24.9845 25.017 24.9844 24.9928V13.604C24.9843 13.5796 24.989 13.5553 24.9982 13.5327C25.0075 13.51 25.0212 13.4895 25.0385 13.4721C25.0557 13.4548 25.0762 13.441 25.0988 13.4316C25.1214 13.4222 25.1457 13.4174 25.1701 13.4174H29.3199C31.6625 13.4147 33.3461 15.1289 33.3461 17.5338ZM31.4119 17.5338C31.4119 16.1532 30.4705 15.1442 29.1936 15.1442H27.0935C27.069 15.1442 27.0448 15.149 27.0222 15.1584C26.9996 15.1678 26.9791 15.1816 26.9618 15.1989C26.9446 15.2163 26.9309 15.2368 26.9216 15.2595C26.9123 15.2821 26.9076 15.3064 26.9077 15.3308V19.7258C26.9077 19.7751 26.9273 19.8224 26.9622 19.8572C26.997 19.892 27.0442 19.9116 27.0935 19.9116H29.1936C30.4705 19.9206 31.4119 18.9107 31.4119 17.5338ZM33.8059 22.9937C33.7898 22.6254 33.866 22.2589 34.0276 21.9276C34.1892 21.5963 34.431 21.3106 34.7311 21.0965C35.3362 20.6411 36.2821 20.4057 37.6707 20.3571L39.1495 20.3048V19.8683C39.1495 18.9936 38.5634 18.6239 37.622 18.6239C36.6806 18.6239 36.0837 18.9576 35.9466 19.5031C35.9354 19.5415 35.9119 19.5751 35.8795 19.5986C35.8472 19.6221 35.808 19.6342 35.7681 19.633H34.3073C34.2804 19.6337 34.2537 19.6285 34.229 19.6177C34.2043 19.607 34.1824 19.5909 34.1646 19.5707C34.1469 19.5504 34.1338 19.5265 34.1264 19.5007C34.1189 19.4748 34.1173 19.4476 34.1215 19.4211C34.3379 18.128 35.4137 17.1451 37.6887 17.1451C40.109 17.1451 40.9827 18.2723 40.9827 20.4238V24.9919C40.9823 25.0417 40.9621 25.0893 40.9266 25.1243C40.8911 25.1593 40.8432 25.1788 40.7934 25.1786H39.3209C39.2716 25.1784 39.2243 25.159 39.1892 25.1245C39.172 25.1072 39.1583 25.0866 39.1491 25.064C39.1398 25.0414 39.135 25.0172 39.1351 24.9928V24.6511C39.1356 24.6228 39.1276 24.5951 39.1121 24.5715C39.0965 24.5479 39.0742 24.5296 39.048 24.5189C39.0219 24.5083 38.9931 24.5058 38.9655 24.5119C38.9379 24.5179 38.9128 24.5322 38.8935 24.5528C38.4516 25.0334 37.7383 25.3806 36.5959 25.3806C34.915 25.3806 33.8059 24.5059 33.8059 22.9937ZM39.1495 22.0036V21.6492L37.2343 21.7502C36.2253 21.8016 35.6382 22.2209 35.6382 22.927C35.6382 23.5654 36.1766 23.9189 37.1171 23.9189C38.3948 23.9189 39.1495 23.229 39.1495 22.0036ZM42.4616 28.6304V27.3066C42.4619 27.2789 42.4682 27.2515 42.4803 27.2265C42.4923 27.2015 42.5097 27.1794 42.5312 27.1619C42.5527 27.1443 42.5778 27.1317 42.6047 27.1249C42.6317 27.1182 42.6597 27.1174 42.687 27.1227C42.9124 27.1651 43.1424 27.1867 43.3723 27.1876C43.7676 27.2068 44.1579 27.0929 44.4808 26.864C44.8037 26.6351 45.0405 26.3046 45.1532 25.9252L45.2488 25.6204C45.2627 25.5795 45.2627 25.5351 45.2488 25.4942L42.1802 17.6131C42.1691 17.5845 42.1651 17.5537 42.1686 17.5232C42.172 17.4928 42.1828 17.4636 42.2 17.4383C42.2172 17.4129 42.2404 17.3921 42.2674 17.3776C42.2944 17.3632 42.3245 17.3555 42.3552 17.3552H43.843C43.881 17.3556 43.918 17.3674 43.9492 17.3891C43.9804 17.4108 44.0044 17.4414 44.0179 17.4769L46.1018 23.0352C46.1149 23.0721 46.1391 23.1041 46.171 23.1267C46.203 23.1493 46.2412 23.1614 46.2804 23.1614C46.3195 23.1614 46.3577 23.1493 46.3897 23.1267C46.4217 23.1041 46.4459 23.0721 46.4589 23.0352L48.2687 17.4923C48.2812 17.4544 48.3054 17.4214 48.3378 17.3981C48.3702 17.3748 48.4091 17.3623 48.449 17.3624H49.9883C50.0191 17.3626 50.0494 17.3703 50.0767 17.3847C50.1039 17.3992 50.1272 17.42 50.1447 17.4454C50.1621 17.4708 50.1732 17.5001 50.1769 17.5307C50.1806 17.5613 50.1768 17.5924 50.1659 17.6212L46.8836 26.3733C46.128 28.4076 44.8322 28.9279 43.4057 28.9279C43.1352 28.9351 42.8646 28.9027 42.6031 28.8314C42.5597 28.8199 42.5216 28.7935 42.4957 28.7567C42.4698 28.7199 42.4577 28.6752 42.4616 28.6304ZM15.0176 12.7609C13.0628 12.747 11.1769 13.4828 9.74795 14.8169C9.68684 14.8728 9.64875 14.9495 9.64108 15.032C9.63341 15.1145 9.65672 15.197 9.70647 15.2632L10.5911 16.4715C10.6197 16.5118 10.6569 16.5452 10.6999 16.5695C10.7429 16.5939 10.7907 16.6085 10.8399 16.6124C10.8892 16.6162 10.9387 16.6093 10.985 16.5919C11.0312 16.5746 11.0731 16.5474 11.1077 16.5121C11.6216 15.9984 12.2326 15.5923 12.9052 15.3175C13.5777 15.0427 14.2983 14.9047 15.0248 14.9115C18.0582 14.9115 19.6426 17.1947 19.6426 19.449C19.6426 21.8999 17.978 23.624 15.5857 23.6583C13.7372 23.6583 12.344 22.4328 12.344 20.8142C12.3459 20.4053 12.4386 20.0019 12.6152 19.6332C12.7919 19.2644 13.0482 18.9394 13.3657 18.6817C13.4328 18.6256 13.4752 18.5454 13.4838 18.4584C13.4924 18.3714 13.4665 18.2845 13.4117 18.2164L12.482 17.0423C12.4539 17.0068 12.4189 16.9773 12.3792 16.9555C12.3395 16.9337 12.2958 16.9201 12.2508 16.9155C12.2057 16.9109 12.1602 16.9153 12.1169 16.9286C12.0736 16.9419 12.0334 16.9637 11.9987 16.9927C11.4277 17.4527 10.9669 18.0347 10.6502 18.696C10.3335 19.3572 10.1687 20.081 10.1682 20.8142C10.1682 23.6006 12.5361 25.7863 15.5695 25.8044H15.6101C19.2115 25.7575 21.8157 23.0902 21.8157 19.4445C21.8157 16.2073 19.4316 12.7609 15.0185 12.7609H15.0176Z" fill="black"></path>
                    </svg>
