<svg width="100%" height="100%" viewBox="0 0 226 167" fill="none" xmlns="http://www.w3.org/2000/svg">
<g filter="url(#filter0_d_353_4698)">
<rect x="21.3229" y="21.3229" width="182.562" height="124.354" rx="14.5521" fill="#393939" stroke="#D9D9D9" stroke-width="2.64583"/>
<path d="M124.269 78.5323C124.269 86.682 118.556 92.4997 110.571 92.4997H103.049C102.966 92.4997 102.884 92.5161 102.807 92.548C102.73 92.5799 102.661 92.6266 102.602 92.6855C102.543 92.7443 102.497 92.8142 102.466 92.891C102.434 92.9679 102.418 93.0502 102.418 93.1332V103.844C102.418 104.012 102.352 104.173 102.234 104.291C102.116 104.41 101.955 104.477 101.788 104.478H96.5242C96.399 104.477 96.2768 104.44 96.1729 104.37C96.0689 104.3 95.9878 104.202 95.9397 104.086C95.9079 104.011 95.8913 103.929 95.8907 103.847V65.1953C95.8903 65.1123 95.9063 65.03 95.9378 64.9531C95.9693 64.8763 96.0157 64.8064 96.0743 64.7476C96.1328 64.6887 96.2025 64.642 96.2792 64.6101C96.3559 64.5782 96.4381 64.5618 96.5211 64.5618H110.605C118.556 64.5527 124.269 70.3704 124.269 78.5323V78.5323ZM117.705 78.5323C117.705 73.8469 114.51 70.4224 110.176 70.4224H103.049C102.966 70.4224 102.884 70.4388 102.807 70.4707C102.73 70.5026 102.661 70.5493 102.602 70.6081C102.543 70.667 102.497 70.7369 102.466 70.8137C102.434 70.8905 102.418 70.9728 102.418 71.0559V85.972C102.418 86.1392 102.485 86.2996 102.603 86.4178C102.721 86.536 102.882 86.6024 103.049 86.6024H110.176C114.51 86.633 117.705 83.2055 117.705 78.5323ZM125.83 97.0627C125.775 95.8128 126.034 94.569 126.582 93.4445C127.131 92.32 127.951 91.3504 128.97 90.6237C131.023 89.0783 134.234 88.2795 138.947 88.1143L143.966 87.9367V86.4555C143.966 83.487 141.976 82.2323 138.781 82.2323C135.586 82.2323 133.56 83.3646 133.095 85.2161C133.057 85.3463 132.977 85.4602 132.868 85.54C132.758 85.6198 132.625 85.6608 132.489 85.6568H127.532C127.44 85.6593 127.35 85.6416 127.266 85.6051C127.182 85.5685 127.108 85.514 127.047 85.4453C126.987 85.3766 126.943 85.2955 126.918 85.2078C126.892 85.12 126.887 85.0278 126.901 84.9376C127.636 80.5491 131.287 77.2133 139.008 77.2133C147.222 77.2133 150.187 81.0387 150.187 88.3407V103.844C150.186 104.014 150.117 104.175 149.997 104.294C149.876 104.413 149.714 104.479 149.545 104.478H144.547C144.38 104.477 144.22 104.412 144.1 104.294C144.042 104.236 143.995 104.166 143.964 104.089C143.932 104.013 143.916 103.93 143.917 103.847V102.688C143.918 102.592 143.891 102.498 143.838 102.418C143.786 102.338 143.71 102.275 143.621 102.239C143.532 102.203 143.435 102.195 143.341 102.215C143.247 102.236 143.162 102.284 143.097 102.354C141.597 103.985 139.176 105.163 135.299 105.163C129.594 105.163 125.83 102.195 125.83 97.0627V97.0627ZM143.966 93.7024V92.4997L137.465 92.8425C134.041 93.0169 132.049 94.44 132.049 96.8362C132.049 99.003 133.876 100.203 137.068 100.203C141.404 100.203 143.966 97.8614 143.966 93.7024V93.7024ZM155.206 116.193V111.7C155.207 111.606 155.229 111.513 155.27 111.428C155.311 111.343 155.37 111.269 155.443 111.209C155.516 111.149 155.601 111.107 155.692 111.084C155.784 111.061 155.879 111.058 155.971 111.076C156.736 111.22 157.517 111.293 158.297 111.296C159.639 111.362 160.964 110.975 162.059 110.198C163.155 109.421 163.959 108.299 164.341 107.012L164.666 105.977C164.713 105.839 164.713 105.688 164.666 105.549L154.251 78.8016C154.214 78.7047 154.2 78.6 154.212 78.4966C154.224 78.3933 154.26 78.2943 154.319 78.2082C154.377 78.1222 154.456 78.0515 154.547 78.0024C154.639 77.9533 154.741 77.9272 154.845 77.9264H159.895C160.024 77.9277 160.149 77.9678 160.255 78.0415C160.361 78.1152 160.442 78.219 160.488 78.3395L167.561 97.2035C167.605 97.3288 167.687 97.4373 167.796 97.514C167.904 97.5908 168.034 97.632 168.167 97.632C168.3 97.632 168.429 97.5908 168.538 97.514C168.646 97.4373 168.729 97.3288 168.773 97.2035L174.915 78.3915C174.957 78.263 175.04 78.1511 175.149 78.072C175.259 77.9928 175.392 77.9504 175.527 77.9508H180.751C180.856 77.9515 180.959 77.9774 181.051 78.0265C181.143 78.0755 181.223 78.1462 181.282 78.2325C181.341 78.3187 181.379 78.4181 181.391 78.522C181.404 78.6259 181.391 78.7313 181.354 78.8292L170.214 108.533C167.65 115.437 163.252 117.203 158.41 117.203C157.492 117.227 156.574 117.117 155.687 116.875C155.539 116.836 155.41 116.746 155.322 116.622C155.234 116.497 155.193 116.345 155.206 116.193V116.193ZM62.0647 62.3339C55.4301 62.2866 49.0297 64.7837 44.1801 69.3115C43.9727 69.5014 43.8434 69.7617 43.8174 70.0418C43.7913 70.3218 43.8704 70.6015 44.0393 70.8264L47.0415 74.9272C47.1388 75.0638 47.2649 75.1773 47.4108 75.2599C47.5567 75.3425 47.719 75.3921 47.8861 75.4052C48.0533 75.4183 48.2213 75.3947 48.3783 75.3359C48.5354 75.2771 48.6776 75.1846 48.7951 75.0649C50.5389 73.3216 52.6127 71.9433 54.8953 71.0106C57.1779 70.0779 59.6235 69.6095 62.0892 69.6328C72.3842 69.6328 77.7612 77.3816 77.7612 85.0325C77.7612 93.3505 72.1118 99.2019 63.9927 99.3182C57.719 99.3182 52.9908 95.1592 52.9908 89.6658C52.9973 88.2781 53.3117 86.909 53.9113 85.6574C54.5109 84.4058 55.3808 83.3029 56.4582 82.4281C56.6859 82.2379 56.8299 81.9658 56.8591 81.6705C56.8883 81.3751 56.8004 81.0802 56.6142 80.849L53.459 76.8644C53.3636 76.7439 53.245 76.6438 53.1103 76.5699C52.9755 76.4959 52.8273 76.4498 52.6744 76.4341C52.5215 76.4184 52.367 76.4335 52.22 76.4785C52.073 76.5235 51.9366 76.5975 51.8187 76.6961C49.8809 78.2573 48.3172 80.2325 47.2422 82.4767C46.1672 84.721 45.6082 87.1774 45.6062 89.6658C45.6062 99.1223 53.6426 106.541 63.9376 106.602H64.0754C76.2984 106.443 85.1367 97.3902 85.1367 85.0172C85.1367 74.0305 77.0451 62.3339 62.0678 62.3339H62.0647Z" fill="white"/>
</g>
<defs>
<filter id="filter0_d_353_4698" x="0" y="0" width="225.208" height="167" filterUnits="userSpaceOnUse" color-interpolation-filters="sRGB">
<feFlood flood-opacity="0" result="BackgroundImageFix"/>
<feColorMatrix in="SourceAlpha" type="matrix" values="0 0 0 0 0 0 0 0 0 0 0 0 0 0 0 0 0 0 127 0" result="hardAlpha"/>
<feOffset/>
<feGaussianBlur stdDeviation="10"/>
<feComposite in2="hardAlpha" operator="out"/>
<feColorMatrix type="matrix" values="0 0 0 0 0 0 0 0 0 0 0 0 0 0 0 0 0 0 0.07 0"/>
<feBlend mode="normal" in2="BackgroundImageFix" result="effect1_dropShadow_353_4698"/>
<feBlend mode="normal" in="SourceGraphic" in2="effect1_dropShadow_353_4698" result="shape"/>
</filter>
</defs>
</svg>
