<svg width="60" height="42" viewBox="0 0 60 42" fill="none" xmlns="http://www.w3.org/2000/svg">
      <rect x="0.873535" y="1" width="58.3735" height="39.8322" fill="white" stroke="#DDDDE4" stroke-width="0.7"></rect>
      <path fill-rule="evenodd" clip-rule="evenodd" d="M18.4438 27.8887H14.9075L12.2557 17.857C12.1299 17.3955 11.8626 16.9875 11.4695 16.7953C10.4884 16.3121 9.40737 15.9275 8.22803 15.7336V15.3473H13.9247C14.711 15.3473 15.3006 15.9275 15.3989 16.6013L16.7748 23.8376L20.3094 15.3473H23.7474L18.4438 27.8887ZM25.7215 27.8887H22.3818L25.1319 15.3473H28.4716L25.7215 27.8887ZM32.7864 18.8212C32.8846 18.1457 33.4743 17.7595 34.1623 17.7595C35.2433 17.6625 36.4209 17.8565 37.4037 18.338L37.9934 15.6378C37.0106 15.2516 35.9295 15.0576 34.9485 15.0576C31.707 15.0576 29.3483 16.7948 29.3483 19.2058C29.3483 21.0399 31.0191 22.0029 32.1984 22.5831C33.4743 23.1616 33.9657 23.5478 33.8674 24.1263C33.8674 24.9941 32.8846 25.3803 31.9036 25.3803C30.7242 25.3803 29.5449 25.0911 28.4655 24.6079L27.8759 27.3097C29.0552 27.7913 30.3311 27.9852 31.5105 27.9852C35.145 28.0805 37.4037 26.345 37.4037 23.7401C37.4037 20.4597 32.7864 20.2674 32.7864 18.8212ZM49.0947 27.8887L46.4429 15.3473H43.5945C43.0048 15.3473 42.4152 15.7336 42.2186 16.3121L37.3081 27.8887H40.7462L41.4324 26.0563H45.6566L46.0498 27.8887H49.0947ZM44.0884 18.7248L45.0694 23.4515H42.3194L44.0884 18.7248Z" fill="#172B85"></path>
    </svg>
